<mxfile host="Electron" modified="2024-03-20T11:11:11.895Z" agent="Mozilla/5.0 (Windows NT 10.0; Win64; x64) AppleWebKit/537.36 (KHTML, like Gecko) draw.io/24.0.4 Chrome/120.0.6099.109 Electron/28.1.0 Safari/537.36" etag="O8rjfKIksvBifcRhNkh8" version="24.0.4" type="device">
  <diagram name="Page-1" id="Fu4RjWit-fqI6XjT2Nnk">
    <mxGraphModel dx="2578" dy="1037" grid="1" gridSize="10" guides="1" tooltips="1" connect="1" arrows="1" fold="1" page="1" pageScale="1" pageWidth="850" pageHeight="1100" math="0" shadow="0">
      <root>
        <mxCell id="0" />
        <mxCell id="1" parent="0" />
        <mxCell id="bkyeC-Dpl-0x7BTJnrMK-1" value="" style="pointerEvents=1;verticalLabelPosition=bottom;shadow=0;dashed=0;align=center;html=1;verticalAlign=top;shape=mxgraph.electrical.signal_sources.dc_source_1;" vertex="1" parent="1">
          <mxGeometry x="240" y="270" width="70" height="75" as="geometry" />
        </mxCell>
        <mxCell id="bkyeC-Dpl-0x7BTJnrMK-3" value="" style="endArrow=none;html=1;rounded=0;entryX=0.58;entryY=0.135;entryDx=0;entryDy=0;entryPerimeter=0;" edge="1" parent="1" target="bkyeC-Dpl-0x7BTJnrMK-1">
          <mxGeometry width="50" height="50" relative="1" as="geometry">
            <mxPoint x="280" y="240" as="sourcePoint" />
            <mxPoint x="370" y="390" as="targetPoint" />
          </mxGeometry>
        </mxCell>
        <mxCell id="bkyeC-Dpl-0x7BTJnrMK-8" style="edgeStyle=orthogonalEdgeStyle;rounded=0;orthogonalLoop=1;jettySize=auto;html=1;exitX=1;exitY=0.5;exitDx=0;exitDy=0;exitPerimeter=0;entryX=1;entryY=0.5;entryDx=0;entryDy=0;entryPerimeter=0;endArrow=none;endFill=0;" edge="1" parent="1" source="bkyeC-Dpl-0x7BTJnrMK-4" target="bkyeC-Dpl-0x7BTJnrMK-5">
          <mxGeometry relative="1" as="geometry">
            <mxPoint x="440" y="370" as="targetPoint" />
          </mxGeometry>
        </mxCell>
        <mxCell id="bkyeC-Dpl-0x7BTJnrMK-9" style="edgeStyle=orthogonalEdgeStyle;rounded=0;orthogonalLoop=1;jettySize=auto;html=1;exitX=0;exitY=0.5;exitDx=0;exitDy=0;exitPerimeter=0;endArrow=none;endFill=0;" edge="1" parent="1" source="bkyeC-Dpl-0x7BTJnrMK-4">
          <mxGeometry relative="1" as="geometry">
            <mxPoint x="280" y="240" as="targetPoint" />
          </mxGeometry>
        </mxCell>
        <mxCell id="bkyeC-Dpl-0x7BTJnrMK-4" value="" style="pointerEvents=1;verticalLabelPosition=bottom;shadow=0;dashed=0;align=center;html=1;verticalAlign=top;shape=mxgraph.electrical.resistors.resistor_2;" vertex="1" parent="1">
          <mxGeometry x="310" y="230" width="100" height="20" as="geometry" />
        </mxCell>
        <mxCell id="bkyeC-Dpl-0x7BTJnrMK-7" style="edgeStyle=orthogonalEdgeStyle;rounded=0;orthogonalLoop=1;jettySize=auto;html=1;exitX=0;exitY=0.5;exitDx=0;exitDy=0;exitPerimeter=0;endArrow=none;endFill=0;" edge="1" parent="1" source="bkyeC-Dpl-0x7BTJnrMK-5">
          <mxGeometry relative="1" as="geometry">
            <mxPoint x="280" y="370" as="targetPoint" />
          </mxGeometry>
        </mxCell>
        <mxCell id="bkyeC-Dpl-0x7BTJnrMK-5" value="" style="pointerEvents=1;verticalLabelPosition=bottom;shadow=0;dashed=0;align=center;html=1;verticalAlign=top;shape=mxgraph.electrical.resistors.resistor_2;" vertex="1" parent="1">
          <mxGeometry x="310" y="360" width="100" height="20" as="geometry" />
        </mxCell>
        <mxCell id="bkyeC-Dpl-0x7BTJnrMK-10" value="" style="endArrow=none;html=1;rounded=0;entryX=0.58;entryY=0.935;entryDx=0;entryDy=0;entryPerimeter=0;" edge="1" parent="1" target="bkyeC-Dpl-0x7BTJnrMK-1">
          <mxGeometry width="50" height="50" relative="1" as="geometry">
            <mxPoint x="280" y="370" as="sourcePoint" />
            <mxPoint x="370" y="350" as="targetPoint" />
          </mxGeometry>
        </mxCell>
        <mxCell id="bkyeC-Dpl-0x7BTJnrMK-11" value="" style="pointerEvents=1;verticalLabelPosition=bottom;shadow=0;dashed=0;align=center;html=1;verticalAlign=top;shape=mxgraph.electrical.resistors.resistor_2;direction=south;" vertex="1" parent="1">
          <mxGeometry x="270" y="370" width="20" height="100" as="geometry" />
        </mxCell>
        <mxCell id="bkyeC-Dpl-0x7BTJnrMK-12" value="" style="pointerEvents=1;verticalLabelPosition=bottom;shadow=0;dashed=0;align=center;html=1;verticalAlign=top;shape=mxgraph.electrical.resistors.resistor_2;direction=south;" vertex="1" parent="1">
          <mxGeometry x="420" y="370" width="20" height="100" as="geometry" />
        </mxCell>
        <mxCell id="bkyeC-Dpl-0x7BTJnrMK-15" style="edgeStyle=orthogonalEdgeStyle;rounded=0;orthogonalLoop=1;jettySize=auto;html=1;exitX=0.58;exitY=0.935;exitDx=0;exitDy=0;exitPerimeter=0;endArrow=none;endFill=0;" edge="1" parent="1" source="bkyeC-Dpl-0x7BTJnrMK-13">
          <mxGeometry relative="1" as="geometry">
            <mxPoint x="280.66666666666663" y="580" as="targetPoint" />
          </mxGeometry>
        </mxCell>
        <mxCell id="bkyeC-Dpl-0x7BTJnrMK-13" value="" style="pointerEvents=1;verticalLabelPosition=bottom;shadow=0;dashed=0;align=center;html=1;verticalAlign=top;shape=mxgraph.electrical.signal_sources.dc_source_1;" vertex="1" parent="1">
          <mxGeometry x="240" y="480" width="70" height="75" as="geometry" />
        </mxCell>
        <mxCell id="bkyeC-Dpl-0x7BTJnrMK-14" style="edgeStyle=orthogonalEdgeStyle;rounded=0;orthogonalLoop=1;jettySize=auto;html=1;exitX=1;exitY=0.5;exitDx=0;exitDy=0;exitPerimeter=0;entryX=0.58;entryY=0.135;entryDx=0;entryDy=0;entryPerimeter=0;endArrow=none;endFill=0;" edge="1" parent="1" source="bkyeC-Dpl-0x7BTJnrMK-11" target="bkyeC-Dpl-0x7BTJnrMK-13">
          <mxGeometry relative="1" as="geometry" />
        </mxCell>
        <mxCell id="bkyeC-Dpl-0x7BTJnrMK-16" value="" style="endArrow=none;html=1;rounded=0;" edge="1" parent="1">
          <mxGeometry width="50" height="50" relative="1" as="geometry">
            <mxPoint x="280" y="580" as="sourcePoint" />
            <mxPoint x="430" y="580" as="targetPoint" />
          </mxGeometry>
        </mxCell>
        <mxCell id="bkyeC-Dpl-0x7BTJnrMK-20" style="edgeStyle=orthogonalEdgeStyle;rounded=0;orthogonalLoop=1;jettySize=auto;html=1;endArrow=none;endFill=0;" edge="1" parent="1" source="bkyeC-Dpl-0x7BTJnrMK-18">
          <mxGeometry relative="1" as="geometry">
            <mxPoint x="430" y="580" as="targetPoint" />
          </mxGeometry>
        </mxCell>
        <mxCell id="bkyeC-Dpl-0x7BTJnrMK-18" value="" style="pointerEvents=1;verticalLabelPosition=bottom;shadow=0;dashed=0;align=center;html=1;verticalAlign=top;shape=mxgraph.electrical.signal_sources.source;aspect=fixed;points=[[0.5,0,0],[1,0.5,0],[0.5,1,0],[0,0.5,0]];elSignalType=ideal;" vertex="1" parent="1">
          <mxGeometry x="400" y="490" width="60" height="60" as="geometry" />
        </mxCell>
        <mxCell id="bkyeC-Dpl-0x7BTJnrMK-19" style="edgeStyle=orthogonalEdgeStyle;rounded=0;orthogonalLoop=1;jettySize=auto;html=1;entryX=0.5;entryY=0;entryDx=0;entryDy=0;entryPerimeter=0;endArrow=none;endFill=0;" edge="1" parent="1" source="bkyeC-Dpl-0x7BTJnrMK-12" target="bkyeC-Dpl-0x7BTJnrMK-18">
          <mxGeometry relative="1" as="geometry" />
        </mxCell>
        <mxCell id="bkyeC-Dpl-0x7BTJnrMK-30" style="edgeStyle=orthogonalEdgeStyle;rounded=0;orthogonalLoop=1;jettySize=auto;html=1;endArrow=none;endFill=0;" edge="1" parent="1" source="bkyeC-Dpl-0x7BTJnrMK-21">
          <mxGeometry relative="1" as="geometry">
            <mxPoint x="560" y="370" as="targetPoint" />
            <Array as="points">
              <mxPoint x="560" y="370" />
              <mxPoint x="560" y="370" />
            </Array>
          </mxGeometry>
        </mxCell>
        <mxCell id="bkyeC-Dpl-0x7BTJnrMK-21" value="" style="pointerEvents=1;verticalLabelPosition=bottom;shadow=0;dashed=0;align=center;html=1;verticalAlign=top;shape=mxgraph.electrical.resistors.resistor_2;" vertex="1" parent="1">
          <mxGeometry x="450" y="360" width="100" height="20" as="geometry" />
        </mxCell>
        <mxCell id="bkyeC-Dpl-0x7BTJnrMK-31" style="edgeStyle=orthogonalEdgeStyle;rounded=0;orthogonalLoop=1;jettySize=auto;html=1;exitX=0;exitY=0.5;exitDx=0;exitDy=0;exitPerimeter=0;endArrow=none;endFill=0;" edge="1" parent="1" source="bkyeC-Dpl-0x7BTJnrMK-22">
          <mxGeometry relative="1" as="geometry">
            <mxPoint x="560" y="370" as="targetPoint" />
          </mxGeometry>
        </mxCell>
        <mxCell id="bkyeC-Dpl-0x7BTJnrMK-32" style="edgeStyle=orthogonalEdgeStyle;rounded=0;orthogonalLoop=1;jettySize=auto;html=1;endArrow=none;endFill=0;" edge="1" parent="1" source="bkyeC-Dpl-0x7BTJnrMK-22">
          <mxGeometry relative="1" as="geometry">
            <mxPoint x="560" y="580" as="targetPoint" />
          </mxGeometry>
        </mxCell>
        <mxCell id="bkyeC-Dpl-0x7BTJnrMK-22" value="" style="pointerEvents=1;verticalLabelPosition=bottom;shadow=0;dashed=0;align=center;html=1;verticalAlign=top;shape=mxgraph.electrical.resistors.resistor_2;direction=south;" vertex="1" parent="1">
          <mxGeometry x="550" y="390" width="20" height="100" as="geometry" />
        </mxCell>
        <mxCell id="bkyeC-Dpl-0x7BTJnrMK-25" style="edgeStyle=orthogonalEdgeStyle;rounded=0;orthogonalLoop=1;jettySize=auto;html=1;entryX=0;entryY=0.5;entryDx=0;entryDy=0;entryPerimeter=0;endArrow=none;endFill=0;" edge="1" parent="1" source="bkyeC-Dpl-0x7BTJnrMK-21" target="bkyeC-Dpl-0x7BTJnrMK-12">
          <mxGeometry relative="1" as="geometry" />
        </mxCell>
        <mxCell id="bkyeC-Dpl-0x7BTJnrMK-27" value="" style="endArrow=none;html=1;rounded=0;" edge="1" parent="1">
          <mxGeometry width="50" height="50" relative="1" as="geometry">
            <mxPoint x="560" y="580" as="sourcePoint" />
            <mxPoint x="430" y="580" as="targetPoint" />
          </mxGeometry>
        </mxCell>
        <mxCell id="bkyeC-Dpl-0x7BTJnrMK-28" value="&lt;font style=&quot;font-size: 20px;&quot;&gt;=&lt;/font&gt;" style="text;html=1;align=center;verticalAlign=middle;resizable=0;points=[];autosize=1;strokeColor=none;fillColor=none;" vertex="1" parent="1">
          <mxGeometry x="430" y="605" width="40" height="40" as="geometry" />
        </mxCell>
        <mxCell id="bkyeC-Dpl-0x7BTJnrMK-29" value="" style="endArrow=classic;html=1;rounded=0;" edge="1" parent="1">
          <mxGeometry width="50" height="50" relative="1" as="geometry">
            <mxPoint x="430" y="600" as="sourcePoint" />
            <mxPoint x="430" y="650" as="targetPoint" />
          </mxGeometry>
        </mxCell>
        <mxCell id="bkyeC-Dpl-0x7BTJnrMK-33" value="" style="pointerEvents=1;verticalLabelPosition=bottom;shadow=0;dashed=0;align=center;html=1;verticalAlign=top;shape=mxgraph.electrical.signal_sources.dc_source_1;" vertex="1" parent="1">
          <mxGeometry x="-150" y="710" width="70" height="75" as="geometry" />
        </mxCell>
        <mxCell id="bkyeC-Dpl-0x7BTJnrMK-34" value="" style="endArrow=none;html=1;rounded=0;entryX=0.58;entryY=0.135;entryDx=0;entryDy=0;entryPerimeter=0;" edge="1" parent="1" target="bkyeC-Dpl-0x7BTJnrMK-33">
          <mxGeometry width="50" height="50" relative="1" as="geometry">
            <mxPoint x="-110" y="680" as="sourcePoint" />
            <mxPoint x="-20" y="830" as="targetPoint" />
          </mxGeometry>
        </mxCell>
        <mxCell id="bkyeC-Dpl-0x7BTJnrMK-35" style="edgeStyle=orthogonalEdgeStyle;rounded=0;orthogonalLoop=1;jettySize=auto;html=1;exitX=1;exitY=0.5;exitDx=0;exitDy=0;exitPerimeter=0;entryX=1;entryY=0.5;entryDx=0;entryDy=0;entryPerimeter=0;endArrow=none;endFill=0;" edge="1" parent="1" source="bkyeC-Dpl-0x7BTJnrMK-37" target="bkyeC-Dpl-0x7BTJnrMK-39">
          <mxGeometry relative="1" as="geometry">
            <mxPoint x="50" y="810" as="targetPoint" />
          </mxGeometry>
        </mxCell>
        <mxCell id="bkyeC-Dpl-0x7BTJnrMK-36" style="edgeStyle=orthogonalEdgeStyle;rounded=0;orthogonalLoop=1;jettySize=auto;html=1;exitX=0;exitY=0.5;exitDx=0;exitDy=0;exitPerimeter=0;endArrow=none;endFill=0;" edge="1" parent="1" source="bkyeC-Dpl-0x7BTJnrMK-37">
          <mxGeometry relative="1" as="geometry">
            <mxPoint x="-110" y="680" as="targetPoint" />
          </mxGeometry>
        </mxCell>
        <mxCell id="bkyeC-Dpl-0x7BTJnrMK-37" value="" style="pointerEvents=1;verticalLabelPosition=bottom;shadow=0;dashed=0;align=center;html=1;verticalAlign=top;shape=mxgraph.electrical.resistors.resistor_2;" vertex="1" parent="1">
          <mxGeometry x="-80" y="670" width="100" height="20" as="geometry" />
        </mxCell>
        <mxCell id="bkyeC-Dpl-0x7BTJnrMK-38" style="edgeStyle=orthogonalEdgeStyle;rounded=0;orthogonalLoop=1;jettySize=auto;html=1;exitX=0;exitY=0.5;exitDx=0;exitDy=0;exitPerimeter=0;endArrow=none;endFill=0;" edge="1" parent="1" source="bkyeC-Dpl-0x7BTJnrMK-39">
          <mxGeometry relative="1" as="geometry">
            <mxPoint x="-110" y="810" as="targetPoint" />
          </mxGeometry>
        </mxCell>
        <mxCell id="bkyeC-Dpl-0x7BTJnrMK-39" value="" style="pointerEvents=1;verticalLabelPosition=bottom;shadow=0;dashed=0;align=center;html=1;verticalAlign=top;shape=mxgraph.electrical.resistors.resistor_2;" vertex="1" parent="1">
          <mxGeometry x="-80" y="800" width="100" height="20" as="geometry" />
        </mxCell>
        <mxCell id="bkyeC-Dpl-0x7BTJnrMK-40" value="" style="endArrow=none;html=1;rounded=0;entryX=0.58;entryY=0.935;entryDx=0;entryDy=0;entryPerimeter=0;" edge="1" parent="1" target="bkyeC-Dpl-0x7BTJnrMK-33">
          <mxGeometry width="50" height="50" relative="1" as="geometry">
            <mxPoint x="-110" y="810" as="sourcePoint" />
            <mxPoint x="-20" y="790" as="targetPoint" />
          </mxGeometry>
        </mxCell>
        <mxCell id="bkyeC-Dpl-0x7BTJnrMK-41" value="" style="pointerEvents=1;verticalLabelPosition=bottom;shadow=0;dashed=0;align=center;html=1;verticalAlign=top;shape=mxgraph.electrical.resistors.resistor_2;direction=south;" vertex="1" parent="1">
          <mxGeometry x="-120" y="810" width="20" height="100" as="geometry" />
        </mxCell>
        <mxCell id="bkyeC-Dpl-0x7BTJnrMK-42" value="" style="pointerEvents=1;verticalLabelPosition=bottom;shadow=0;dashed=0;align=center;html=1;verticalAlign=top;shape=mxgraph.electrical.resistors.resistor_2;direction=south;" vertex="1" parent="1">
          <mxGeometry x="30" y="810" width="20" height="100" as="geometry" />
        </mxCell>
        <mxCell id="bkyeC-Dpl-0x7BTJnrMK-46" value="" style="endArrow=none;html=1;rounded=0;" edge="1" parent="1">
          <mxGeometry width="50" height="50" relative="1" as="geometry">
            <mxPoint x="-110" y="1020" as="sourcePoint" />
            <mxPoint x="40" y="1020" as="targetPoint" />
          </mxGeometry>
        </mxCell>
        <mxCell id="bkyeC-Dpl-0x7BTJnrMK-47" style="edgeStyle=orthogonalEdgeStyle;rounded=0;orthogonalLoop=1;jettySize=auto;html=1;endArrow=none;endFill=0;exitX=1;exitY=0.5;exitDx=0;exitDy=0;exitPerimeter=0;" edge="1" parent="1" source="bkyeC-Dpl-0x7BTJnrMK-42">
          <mxGeometry relative="1" as="geometry">
            <mxPoint x="40" y="1020" as="targetPoint" />
            <mxPoint x="40.02857142857147" y="990" as="sourcePoint" />
          </mxGeometry>
        </mxCell>
        <mxCell id="bkyeC-Dpl-0x7BTJnrMK-50" style="edgeStyle=orthogonalEdgeStyle;rounded=0;orthogonalLoop=1;jettySize=auto;html=1;endArrow=none;endFill=0;" edge="1" parent="1" source="bkyeC-Dpl-0x7BTJnrMK-51">
          <mxGeometry relative="1" as="geometry">
            <mxPoint x="170" y="810" as="targetPoint" />
            <Array as="points">
              <mxPoint x="170" y="810" />
              <mxPoint x="170" y="810" />
            </Array>
          </mxGeometry>
        </mxCell>
        <mxCell id="bkyeC-Dpl-0x7BTJnrMK-51" value="" style="pointerEvents=1;verticalLabelPosition=bottom;shadow=0;dashed=0;align=center;html=1;verticalAlign=top;shape=mxgraph.electrical.resistors.resistor_2;" vertex="1" parent="1">
          <mxGeometry x="60" y="800" width="100" height="20" as="geometry" />
        </mxCell>
        <mxCell id="bkyeC-Dpl-0x7BTJnrMK-52" style="edgeStyle=orthogonalEdgeStyle;rounded=0;orthogonalLoop=1;jettySize=auto;html=1;exitX=0;exitY=0.5;exitDx=0;exitDy=0;exitPerimeter=0;endArrow=none;endFill=0;" edge="1" parent="1" source="bkyeC-Dpl-0x7BTJnrMK-54">
          <mxGeometry relative="1" as="geometry">
            <mxPoint x="170" y="810" as="targetPoint" />
          </mxGeometry>
        </mxCell>
        <mxCell id="bkyeC-Dpl-0x7BTJnrMK-53" style="edgeStyle=orthogonalEdgeStyle;rounded=0;orthogonalLoop=1;jettySize=auto;html=1;endArrow=none;endFill=0;" edge="1" parent="1" source="bkyeC-Dpl-0x7BTJnrMK-54">
          <mxGeometry relative="1" as="geometry">
            <mxPoint x="170" y="1020" as="targetPoint" />
          </mxGeometry>
        </mxCell>
        <mxCell id="bkyeC-Dpl-0x7BTJnrMK-54" value="" style="pointerEvents=1;verticalLabelPosition=bottom;shadow=0;dashed=0;align=center;html=1;verticalAlign=top;shape=mxgraph.electrical.resistors.resistor_2;direction=south;" vertex="1" parent="1">
          <mxGeometry x="160" y="830" width="20" height="100" as="geometry" />
        </mxCell>
        <mxCell id="bkyeC-Dpl-0x7BTJnrMK-55" style="edgeStyle=orthogonalEdgeStyle;rounded=0;orthogonalLoop=1;jettySize=auto;html=1;entryX=0;entryY=0.5;entryDx=0;entryDy=0;entryPerimeter=0;endArrow=none;endFill=0;" edge="1" parent="1" source="bkyeC-Dpl-0x7BTJnrMK-51" target="bkyeC-Dpl-0x7BTJnrMK-42">
          <mxGeometry relative="1" as="geometry" />
        </mxCell>
        <mxCell id="bkyeC-Dpl-0x7BTJnrMK-56" value="" style="endArrow=none;html=1;rounded=0;" edge="1" parent="1">
          <mxGeometry width="50" height="50" relative="1" as="geometry">
            <mxPoint x="170" y="1020" as="sourcePoint" />
            <mxPoint x="40" y="1020" as="targetPoint" />
          </mxGeometry>
        </mxCell>
        <mxCell id="bkyeC-Dpl-0x7BTJnrMK-58" value="" style="endArrow=none;html=1;rounded=0;entryX=0;entryY=0.5;entryDx=0;entryDy=0;entryPerimeter=0;" edge="1" parent="1" target="bkyeC-Dpl-0x7BTJnrMK-65">
          <mxGeometry width="50" height="50" relative="1" as="geometry">
            <mxPoint x="290" y="680" as="sourcePoint" />
            <mxPoint x="291" y="720.29" as="targetPoint" />
          </mxGeometry>
        </mxCell>
        <mxCell id="bkyeC-Dpl-0x7BTJnrMK-59" style="edgeStyle=orthogonalEdgeStyle;rounded=0;orthogonalLoop=1;jettySize=auto;html=1;exitX=1;exitY=0.5;exitDx=0;exitDy=0;exitPerimeter=0;entryX=1;entryY=0.5;entryDx=0;entryDy=0;entryPerimeter=0;endArrow=none;endFill=0;" edge="1" parent="1" source="bkyeC-Dpl-0x7BTJnrMK-61" target="bkyeC-Dpl-0x7BTJnrMK-63">
          <mxGeometry relative="1" as="geometry">
            <mxPoint x="450" y="810" as="targetPoint" />
          </mxGeometry>
        </mxCell>
        <mxCell id="bkyeC-Dpl-0x7BTJnrMK-60" style="edgeStyle=orthogonalEdgeStyle;rounded=0;orthogonalLoop=1;jettySize=auto;html=1;exitX=0;exitY=0.5;exitDx=0;exitDy=0;exitPerimeter=0;endArrow=none;endFill=0;" edge="1" parent="1" source="bkyeC-Dpl-0x7BTJnrMK-61">
          <mxGeometry relative="1" as="geometry">
            <mxPoint x="290" y="680" as="targetPoint" />
          </mxGeometry>
        </mxCell>
        <mxCell id="bkyeC-Dpl-0x7BTJnrMK-61" value="" style="pointerEvents=1;verticalLabelPosition=bottom;shadow=0;dashed=0;align=center;html=1;verticalAlign=top;shape=mxgraph.electrical.resistors.resistor_2;" vertex="1" parent="1">
          <mxGeometry x="320" y="670" width="100" height="20" as="geometry" />
        </mxCell>
        <mxCell id="bkyeC-Dpl-0x7BTJnrMK-62" style="edgeStyle=orthogonalEdgeStyle;rounded=0;orthogonalLoop=1;jettySize=auto;html=1;exitX=0;exitY=0.5;exitDx=0;exitDy=0;exitPerimeter=0;endArrow=none;endFill=0;" edge="1" parent="1" source="bkyeC-Dpl-0x7BTJnrMK-63">
          <mxGeometry relative="1" as="geometry">
            <mxPoint x="290" y="810" as="targetPoint" />
          </mxGeometry>
        </mxCell>
        <mxCell id="bkyeC-Dpl-0x7BTJnrMK-63" value="" style="pointerEvents=1;verticalLabelPosition=bottom;shadow=0;dashed=0;align=center;html=1;verticalAlign=top;shape=mxgraph.electrical.resistors.resistor_2;" vertex="1" parent="1">
          <mxGeometry x="320" y="800" width="100" height="20" as="geometry" />
        </mxCell>
        <mxCell id="bkyeC-Dpl-0x7BTJnrMK-65" value="" style="pointerEvents=1;verticalLabelPosition=bottom;shadow=0;dashed=0;align=center;html=1;verticalAlign=top;shape=mxgraph.electrical.resistors.resistor_2;direction=south;" vertex="1" parent="1">
          <mxGeometry x="280" y="810" width="20" height="100" as="geometry" />
        </mxCell>
        <mxCell id="bkyeC-Dpl-0x7BTJnrMK-66" value="" style="pointerEvents=1;verticalLabelPosition=bottom;shadow=0;dashed=0;align=center;html=1;verticalAlign=top;shape=mxgraph.electrical.resistors.resistor_2;direction=south;" vertex="1" parent="1">
          <mxGeometry x="430" y="810" width="20" height="100" as="geometry" />
        </mxCell>
        <mxCell id="bkyeC-Dpl-0x7BTJnrMK-67" style="edgeStyle=orthogonalEdgeStyle;rounded=0;orthogonalLoop=1;jettySize=auto;html=1;exitX=0.58;exitY=0.935;exitDx=0;exitDy=0;exitPerimeter=0;endArrow=none;endFill=0;" edge="1" parent="1" source="bkyeC-Dpl-0x7BTJnrMK-68">
          <mxGeometry relative="1" as="geometry">
            <mxPoint x="290.66666666666663" y="1020" as="targetPoint" />
          </mxGeometry>
        </mxCell>
        <mxCell id="bkyeC-Dpl-0x7BTJnrMK-68" value="" style="pointerEvents=1;verticalLabelPosition=bottom;shadow=0;dashed=0;align=center;html=1;verticalAlign=top;shape=mxgraph.electrical.signal_sources.dc_source_1;" vertex="1" parent="1">
          <mxGeometry x="250" y="920" width="70" height="75" as="geometry" />
        </mxCell>
        <mxCell id="bkyeC-Dpl-0x7BTJnrMK-69" style="edgeStyle=orthogonalEdgeStyle;rounded=0;orthogonalLoop=1;jettySize=auto;html=1;exitX=1;exitY=0.5;exitDx=0;exitDy=0;exitPerimeter=0;entryX=0.58;entryY=0.135;entryDx=0;entryDy=0;entryPerimeter=0;endArrow=none;endFill=0;" edge="1" parent="1" source="bkyeC-Dpl-0x7BTJnrMK-65" target="bkyeC-Dpl-0x7BTJnrMK-68">
          <mxGeometry relative="1" as="geometry" />
        </mxCell>
        <mxCell id="bkyeC-Dpl-0x7BTJnrMK-70" value="" style="endArrow=none;html=1;rounded=0;" edge="1" parent="1">
          <mxGeometry width="50" height="50" relative="1" as="geometry">
            <mxPoint x="290" y="1020" as="sourcePoint" />
            <mxPoint x="440" y="1020" as="targetPoint" />
          </mxGeometry>
        </mxCell>
        <mxCell id="bkyeC-Dpl-0x7BTJnrMK-71" style="edgeStyle=orthogonalEdgeStyle;rounded=0;orthogonalLoop=1;jettySize=auto;html=1;endArrow=none;endFill=0;exitX=1;exitY=0.5;exitDx=0;exitDy=0;exitPerimeter=0;" edge="1" parent="1" source="bkyeC-Dpl-0x7BTJnrMK-66">
          <mxGeometry relative="1" as="geometry">
            <mxPoint x="440" y="1020" as="targetPoint" />
            <mxPoint x="440.0344827586209" y="990.0000000000002" as="sourcePoint" />
          </mxGeometry>
        </mxCell>
        <mxCell id="bkyeC-Dpl-0x7BTJnrMK-74" style="edgeStyle=orthogonalEdgeStyle;rounded=0;orthogonalLoop=1;jettySize=auto;html=1;endArrow=none;endFill=0;" edge="1" parent="1" source="bkyeC-Dpl-0x7BTJnrMK-75">
          <mxGeometry relative="1" as="geometry">
            <mxPoint x="570" y="810" as="targetPoint" />
            <Array as="points">
              <mxPoint x="570" y="810" />
              <mxPoint x="570" y="810" />
            </Array>
          </mxGeometry>
        </mxCell>
        <mxCell id="bkyeC-Dpl-0x7BTJnrMK-75" value="" style="pointerEvents=1;verticalLabelPosition=bottom;shadow=0;dashed=0;align=center;html=1;verticalAlign=top;shape=mxgraph.electrical.resistors.resistor_2;" vertex="1" parent="1">
          <mxGeometry x="460" y="800" width="100" height="20" as="geometry" />
        </mxCell>
        <mxCell id="bkyeC-Dpl-0x7BTJnrMK-76" style="edgeStyle=orthogonalEdgeStyle;rounded=0;orthogonalLoop=1;jettySize=auto;html=1;exitX=0;exitY=0.5;exitDx=0;exitDy=0;exitPerimeter=0;endArrow=none;endFill=0;" edge="1" parent="1" source="bkyeC-Dpl-0x7BTJnrMK-78">
          <mxGeometry relative="1" as="geometry">
            <mxPoint x="570" y="810" as="targetPoint" />
          </mxGeometry>
        </mxCell>
        <mxCell id="bkyeC-Dpl-0x7BTJnrMK-77" style="edgeStyle=orthogonalEdgeStyle;rounded=0;orthogonalLoop=1;jettySize=auto;html=1;endArrow=none;endFill=0;" edge="1" parent="1" source="bkyeC-Dpl-0x7BTJnrMK-78">
          <mxGeometry relative="1" as="geometry">
            <mxPoint x="570" y="1020" as="targetPoint" />
          </mxGeometry>
        </mxCell>
        <mxCell id="bkyeC-Dpl-0x7BTJnrMK-78" value="" style="pointerEvents=1;verticalLabelPosition=bottom;shadow=0;dashed=0;align=center;html=1;verticalAlign=top;shape=mxgraph.electrical.resistors.resistor_2;direction=south;" vertex="1" parent="1">
          <mxGeometry x="560" y="830" width="20" height="100" as="geometry" />
        </mxCell>
        <mxCell id="bkyeC-Dpl-0x7BTJnrMK-79" style="edgeStyle=orthogonalEdgeStyle;rounded=0;orthogonalLoop=1;jettySize=auto;html=1;entryX=0;entryY=0.5;entryDx=0;entryDy=0;entryPerimeter=0;endArrow=none;endFill=0;" edge="1" parent="1" source="bkyeC-Dpl-0x7BTJnrMK-75" target="bkyeC-Dpl-0x7BTJnrMK-66">
          <mxGeometry relative="1" as="geometry" />
        </mxCell>
        <mxCell id="bkyeC-Dpl-0x7BTJnrMK-80" value="" style="endArrow=none;html=1;rounded=0;" edge="1" parent="1">
          <mxGeometry width="50" height="50" relative="1" as="geometry">
            <mxPoint x="570" y="1020" as="sourcePoint" />
            <mxPoint x="440" y="1020" as="targetPoint" />
          </mxGeometry>
        </mxCell>
        <mxCell id="bkyeC-Dpl-0x7BTJnrMK-83" style="edgeStyle=orthogonalEdgeStyle;rounded=0;orthogonalLoop=1;jettySize=auto;html=1;exitX=1;exitY=0.5;exitDx=0;exitDy=0;exitPerimeter=0;entryX=1;entryY=0.5;entryDx=0;entryDy=0;entryPerimeter=0;endArrow=none;endFill=0;" edge="1" parent="1" source="bkyeC-Dpl-0x7BTJnrMK-85" target="bkyeC-Dpl-0x7BTJnrMK-87">
          <mxGeometry relative="1" as="geometry">
            <mxPoint x="850" y="810" as="targetPoint" />
          </mxGeometry>
        </mxCell>
        <mxCell id="bkyeC-Dpl-0x7BTJnrMK-84" style="edgeStyle=orthogonalEdgeStyle;rounded=0;orthogonalLoop=1;jettySize=auto;html=1;exitX=0;exitY=0.5;exitDx=0;exitDy=0;exitPerimeter=0;endArrow=none;endFill=0;" edge="1" parent="1" source="bkyeC-Dpl-0x7BTJnrMK-85">
          <mxGeometry relative="1" as="geometry">
            <mxPoint x="690" y="680" as="targetPoint" />
          </mxGeometry>
        </mxCell>
        <mxCell id="bkyeC-Dpl-0x7BTJnrMK-85" value="" style="pointerEvents=1;verticalLabelPosition=bottom;shadow=0;dashed=0;align=center;html=1;verticalAlign=top;shape=mxgraph.electrical.resistors.resistor_2;" vertex="1" parent="1">
          <mxGeometry x="720" y="670" width="100" height="20" as="geometry" />
        </mxCell>
        <mxCell id="bkyeC-Dpl-0x7BTJnrMK-86" style="edgeStyle=orthogonalEdgeStyle;rounded=0;orthogonalLoop=1;jettySize=auto;html=1;exitX=0;exitY=0.5;exitDx=0;exitDy=0;exitPerimeter=0;endArrow=none;endFill=0;" edge="1" parent="1" source="bkyeC-Dpl-0x7BTJnrMK-87">
          <mxGeometry relative="1" as="geometry">
            <mxPoint x="690" y="810" as="targetPoint" />
          </mxGeometry>
        </mxCell>
        <mxCell id="bkyeC-Dpl-0x7BTJnrMK-87" value="" style="pointerEvents=1;verticalLabelPosition=bottom;shadow=0;dashed=0;align=center;html=1;verticalAlign=top;shape=mxgraph.electrical.resistors.resistor_2;" vertex="1" parent="1">
          <mxGeometry x="720" y="800" width="100" height="20" as="geometry" />
        </mxCell>
        <mxCell id="bkyeC-Dpl-0x7BTJnrMK-88" value="" style="endArrow=none;html=1;rounded=0;" edge="1" parent="1">
          <mxGeometry width="50" height="50" relative="1" as="geometry">
            <mxPoint x="690" y="810" as="sourcePoint" />
            <mxPoint x="690" y="680" as="targetPoint" />
          </mxGeometry>
        </mxCell>
        <mxCell id="bkyeC-Dpl-0x7BTJnrMK-109" style="edgeStyle=orthogonalEdgeStyle;rounded=0;orthogonalLoop=1;jettySize=auto;html=1;endArrow=none;endFill=0;" edge="1" parent="1" source="bkyeC-Dpl-0x7BTJnrMK-89">
          <mxGeometry relative="1" as="geometry">
            <mxPoint x="690.0000000000002" y="1020" as="targetPoint" />
          </mxGeometry>
        </mxCell>
        <mxCell id="bkyeC-Dpl-0x7BTJnrMK-89" value="" style="pointerEvents=1;verticalLabelPosition=bottom;shadow=0;dashed=0;align=center;html=1;verticalAlign=top;shape=mxgraph.electrical.resistors.resistor_2;direction=south;" vertex="1" parent="1">
          <mxGeometry x="680" y="810" width="20" height="100" as="geometry" />
        </mxCell>
        <mxCell id="bkyeC-Dpl-0x7BTJnrMK-90" value="" style="pointerEvents=1;verticalLabelPosition=bottom;shadow=0;dashed=0;align=center;html=1;verticalAlign=top;shape=mxgraph.electrical.resistors.resistor_2;direction=south;" vertex="1" parent="1">
          <mxGeometry x="830" y="810" width="20" height="100" as="geometry" />
        </mxCell>
        <mxCell id="bkyeC-Dpl-0x7BTJnrMK-94" value="" style="endArrow=none;html=1;rounded=0;" edge="1" parent="1">
          <mxGeometry width="50" height="50" relative="1" as="geometry">
            <mxPoint x="690" y="1020" as="sourcePoint" />
            <mxPoint x="840" y="1020" as="targetPoint" />
          </mxGeometry>
        </mxCell>
        <mxCell id="bkyeC-Dpl-0x7BTJnrMK-95" style="edgeStyle=orthogonalEdgeStyle;rounded=0;orthogonalLoop=1;jettySize=auto;html=1;endArrow=none;endFill=0;" edge="1" parent="1" source="bkyeC-Dpl-0x7BTJnrMK-96">
          <mxGeometry relative="1" as="geometry">
            <mxPoint x="840" y="1020" as="targetPoint" />
          </mxGeometry>
        </mxCell>
        <mxCell id="bkyeC-Dpl-0x7BTJnrMK-96" value="" style="pointerEvents=1;verticalLabelPosition=bottom;shadow=0;dashed=0;align=center;html=1;verticalAlign=top;shape=mxgraph.electrical.signal_sources.source;aspect=fixed;points=[[0.5,0,0],[1,0.5,0],[0.5,1,0],[0,0.5,0]];elSignalType=ideal;" vertex="1" parent="1">
          <mxGeometry x="810" y="930" width="60" height="60" as="geometry" />
        </mxCell>
        <mxCell id="bkyeC-Dpl-0x7BTJnrMK-97" style="edgeStyle=orthogonalEdgeStyle;rounded=0;orthogonalLoop=1;jettySize=auto;html=1;entryX=0.5;entryY=0;entryDx=0;entryDy=0;entryPerimeter=0;endArrow=none;endFill=0;" edge="1" parent="1" source="bkyeC-Dpl-0x7BTJnrMK-90" target="bkyeC-Dpl-0x7BTJnrMK-96">
          <mxGeometry relative="1" as="geometry" />
        </mxCell>
        <mxCell id="bkyeC-Dpl-0x7BTJnrMK-98" style="edgeStyle=orthogonalEdgeStyle;rounded=0;orthogonalLoop=1;jettySize=auto;html=1;endArrow=none;endFill=0;" edge="1" parent="1" source="bkyeC-Dpl-0x7BTJnrMK-99">
          <mxGeometry relative="1" as="geometry">
            <mxPoint x="970" y="810" as="targetPoint" />
            <Array as="points">
              <mxPoint x="970" y="810" />
              <mxPoint x="970" y="810" />
            </Array>
          </mxGeometry>
        </mxCell>
        <mxCell id="bkyeC-Dpl-0x7BTJnrMK-99" value="" style="pointerEvents=1;verticalLabelPosition=bottom;shadow=0;dashed=0;align=center;html=1;verticalAlign=top;shape=mxgraph.electrical.resistors.resistor_2;" vertex="1" parent="1">
          <mxGeometry x="860" y="800" width="100" height="20" as="geometry" />
        </mxCell>
        <mxCell id="bkyeC-Dpl-0x7BTJnrMK-100" style="edgeStyle=orthogonalEdgeStyle;rounded=0;orthogonalLoop=1;jettySize=auto;html=1;exitX=0;exitY=0.5;exitDx=0;exitDy=0;exitPerimeter=0;endArrow=none;endFill=0;" edge="1" parent="1" source="bkyeC-Dpl-0x7BTJnrMK-102">
          <mxGeometry relative="1" as="geometry">
            <mxPoint x="970" y="810" as="targetPoint" />
          </mxGeometry>
        </mxCell>
        <mxCell id="bkyeC-Dpl-0x7BTJnrMK-101" style="edgeStyle=orthogonalEdgeStyle;rounded=0;orthogonalLoop=1;jettySize=auto;html=1;endArrow=none;endFill=0;" edge="1" parent="1" source="bkyeC-Dpl-0x7BTJnrMK-102">
          <mxGeometry relative="1" as="geometry">
            <mxPoint x="970" y="1020" as="targetPoint" />
          </mxGeometry>
        </mxCell>
        <mxCell id="bkyeC-Dpl-0x7BTJnrMK-102" value="" style="pointerEvents=1;verticalLabelPosition=bottom;shadow=0;dashed=0;align=center;html=1;verticalAlign=top;shape=mxgraph.electrical.resistors.resistor_2;direction=south;" vertex="1" parent="1">
          <mxGeometry x="960" y="830" width="20" height="100" as="geometry" />
        </mxCell>
        <mxCell id="bkyeC-Dpl-0x7BTJnrMK-103" style="edgeStyle=orthogonalEdgeStyle;rounded=0;orthogonalLoop=1;jettySize=auto;html=1;entryX=0;entryY=0.5;entryDx=0;entryDy=0;entryPerimeter=0;endArrow=none;endFill=0;" edge="1" parent="1" source="bkyeC-Dpl-0x7BTJnrMK-99" target="bkyeC-Dpl-0x7BTJnrMK-90">
          <mxGeometry relative="1" as="geometry" />
        </mxCell>
        <mxCell id="bkyeC-Dpl-0x7BTJnrMK-104" value="" style="endArrow=none;html=1;rounded=0;" edge="1" parent="1">
          <mxGeometry width="50" height="50" relative="1" as="geometry">
            <mxPoint x="970" y="1020" as="sourcePoint" />
            <mxPoint x="840" y="1020" as="targetPoint" />
          </mxGeometry>
        </mxCell>
        <mxCell id="bkyeC-Dpl-0x7BTJnrMK-105" value="" style="endArrow=none;html=1;rounded=0;entryX=1;entryY=0.5;entryDx=0;entryDy=0;entryPerimeter=0;" edge="1" parent="1" target="bkyeC-Dpl-0x7BTJnrMK-41">
          <mxGeometry width="50" height="50" relative="1" as="geometry">
            <mxPoint x="-110" y="1020" as="sourcePoint" />
            <mxPoint x="-60" y="920" as="targetPoint" />
          </mxGeometry>
        </mxCell>
        <mxCell id="bkyeC-Dpl-0x7BTJnrMK-110" value="&lt;font style=&quot;font-size: 20px;&quot;&gt;+&lt;/font&gt;" style="text;html=1;align=center;verticalAlign=middle;resizable=0;points=[];autosize=1;strokeColor=none;fillColor=none;" vertex="1" parent="1">
          <mxGeometry x="210" y="800" width="40" height="40" as="geometry" />
        </mxCell>
        <mxCell id="bkyeC-Dpl-0x7BTJnrMK-111" value="&lt;font style=&quot;font-size: 20px;&quot;&gt;+&lt;/font&gt;" style="text;html=1;align=center;verticalAlign=middle;resizable=0;points=[];autosize=1;strokeColor=none;fillColor=none;" vertex="1" parent="1">
          <mxGeometry x="610" y="800" width="40" height="40" as="geometry" />
        </mxCell>
      </root>
    </mxGraphModel>
  </diagram>
</mxfile>
